<svg width="2043" height="2147" viewBox="0 0 2043 2147" fill="none" xmlns="http://www.w3.org/2000/svg">
<g filter="url(#filter0_d_1637_35217)">
<path d="M343.49 1324.3C333.427 1355.92 338.784 1388.83 338.784 1422.03C331.03 1422.03 321.083 1420.32 315.255 1416.24C306.803 1410.32 287.58 1443.74 285.029 1448.28C267.317 1479.76 234.443 1546.87 257.518 1581.49C281.477 1617.43 329.964 1618.46 358.332 1646.83C376.101 1664.6 384.876 1692.14 402.856 1709.45C420.864 1726.79 448.191 1745.57 471.272 1754.16C510.537 1768.77 557.871 1772.35 599.375 1775.5L599.596 1775.51C647.756 1779.16 695.723 1783.36 743.486 1790.9C794.937 1799.02 844.447 1812.82 892.625 1832.53C913.462 1841.05 930.278 1852.89 952.715 1857.14C1052.94 1876.15 1144.25 1911.1 1234.7 1956.33C1248.9 1963.42 1229.27 1974.19 1254.61 1980.83C1261.86 1982.73 1283.86 1995.88 1296.33 1991.71C1314.47 1985.65 1340.33 1949.2 1348.94 1940.92C1397.9 1893.81 1409.7 1878.43 1458.41 1831.08C1490.49 1799.89 1520.7 1768.75 1559.77 1747.1C1589.44 1730.65 1618.61 1712 1646.46 1692.62C1681.02 1668.58 1715.8 1641.41 1755.97 1627.28C1771.79 1621.71 1773.36 1628.62 1787.82 1633.07C1794.5 1635.13 1802.08 1621.15 1804.83 1616.78C1818.43 1595.18 1831.91 1566.87 1833.97 1541.13C1835.72 1519.35 1827.78 1506.58 1818.59 1487.19C1807.93 1464.69 1819.22 1438.47 1821.3 1415.52C1824.48 1380.56 1839.91 1348.62 1855.33 1317.78C1862.93 1302.59 1878.87 1272.92 1879.77 1255.88C1880.6 1240.06 1873.25 1226.34 1873.25 1210.99C1873.25 1193.11 1871.5 1173.15 1865.1 1156.51C1858.17 1138.48 1858.11 1119.07 1852.07 1100.95C1838.3 1059.63 1826.3 1014.34 1817.87 971.72C1804.35 903.418 1792.64 834.966 1765.56 770.636C1749.93 733.523 1732.71 697.858 1715.42 661.497C1700.06 629.187 1687.27 597.892 1665.47 569.19C1650.2 549.092 1637.2 528.791 1617.69 512.358C1592.32 490.997 1562.98 474.417 1536.96 453.716C1508.82 431.321 1480.49 409.284 1451.9 387.473C1400.3 348.119 1349.76 328.169 1288.28 310.912C1219.76 291.678 1144.52 268.454 1082.31 232.904C1053.26 216.308 1026.49 198.006 992.353 193.99C970.957 191.473 903.977 160.008 902.399 201.049C901.168 233.061 895.354 262.349 898.96 294.804C900.25 306.409 900.365 334.62 908.915 343.672C944.223 381.057 998.78 373.46 1043.76 392.54C1084.87 409.981 1112.24 452.683 1144.21 481.227C1185.7 518.271 1244.35 528.686 1293.35 552.177C1321.76 565.799 1353.33 570.388 1381.31 584.756C1395.51 592.05 1408.39 608.939 1418.96 620.592C1434.81 638.085 1454.7 649.363 1467.64 669.28C1474.21 679.385 1480.29 689.376 1485.56 700.23C1499.65 729.228 1510.18 763.434 1516.51 795.07C1522.79 826.47 1527.76 857.853 1519.59 889.368C1508.43 932.422 1488.56 963.67 1456.96 995.973C1426.93 1026.67 1375.97 1049.96 1335.88 1065.29C1297.48 1079.98 1260.67 1095.39 1219.14 1098.78C1182.27 1101.79 1144.94 1098.28 1108.37 1093.71C1087.64 1091.12 1066.51 1094.63 1045.75 1092.26C1008.88 1088.05 980.513 1076.96 948.19 1058.78C925.465 1046 909.489 1035.68 908.915 1007.56C908.146 969.865 918.055 930 910.544 892.445C902.139 850.422 909.736 806.501 899.141 764.12C894.467 745.426 885.604 745.617 872.354 730.711C864.498 721.873 852.103 707.033 847.739 696.322C843.94 686.999 833.301 684.737 828.192 676.051C817.879 658.52 776.629 657.819 760.862 648.359C747.002 640.043 729.107 643.472 713.441 643.472C690.239 643.472 661.434 648.11 638.872 641.843C617.934 636.027 597.111 637.617 576.61 627.906C554.051 617.22 527.27 613.824 506.566 599.49C482.854 583.074 469.017 591.366 443.037 597.861C417.748 604.184 391.765 605.579 368.105 617.409C354.69 624.116 342.962 633.871 329.011 639.49C316.693 644.451 304.522 648.14 293.898 656.503C242.125 697.261 211.096 713.485 189.103 775.342C179.758 801.623 176.044 829.206 171.003 856.427C168.232 871.389 159.86 884.154 157.067 898.961C152.629 922.479 153.085 944.301 153.085 968.462C153.085 985.18 151.928 1005.67 158.153 1021.67C172.122 1057.59 195.888 1077.15 222.767 1104.03C242.05 1123.31 264.536 1138.64 285.753 1155.61C306.076 1171.87 338.122 1193.46 346.024 1220.04C355.534 1252.03 353.699 1292.21 343.49 1324.3Z" fill="#A86D8A"/>
<path d="M340.49 1305.3C330.427 1336.92 335.784 1369.83 335.784 1403.03C328.03 1403.03 318.083 1401.32 312.255 1397.24C303.803 1391.32 284.58 1424.74 282.029 1429.28C264.317 1460.76 231.443 1527.87 254.518 1562.49C278.477 1598.43 326.964 1599.46 355.332 1627.83C373.101 1645.6 381.876 1673.14 399.856 1690.45C417.864 1707.79 445.191 1726.57 468.272 1735.16C507.537 1749.77 554.871 1753.35 596.375 1756.5L596.596 1756.51C644.756 1760.16 692.723 1764.36 740.486 1771.9C791.937 1780.02 841.447 1793.82 889.625 1813.53C910.462 1822.05 927.278 1833.89 949.715 1838.14C1049.94 1857.15 1141.25 1892.1 1231.7 1937.33C1245.9 1944.42 1226.27 1955.19 1251.61 1961.83C1258.86 1963.73 1280.86 1976.88 1293.33 1972.71C1311.47 1966.65 1337.33 1930.2 1345.94 1921.92C1394.9 1874.81 1406.7 1859.43 1455.41 1812.08C1487.49 1780.89 1517.7 1749.75 1556.77 1728.1C1586.44 1711.65 1615.61 1693 1643.46 1673.62C1678.02 1649.58 1712.8 1622.41 1752.97 1608.28C1768.79 1602.71 1770.36 1609.62 1784.82 1614.07C1791.5 1616.13 1799.08 1602.15 1801.83 1597.78C1815.43 1576.18 1828.91 1547.87 1830.97 1522.13C1832.72 1500.35 1824.78 1487.58 1815.59 1468.19C1804.93 1445.69 1816.22 1419.47 1818.3 1396.52C1821.48 1361.56 1836.91 1329.62 1852.33 1298.78C1859.93 1283.59 1875.87 1253.92 1876.77 1236.88C1877.6 1221.06 1870.25 1207.34 1870.25 1191.99C1870.25 1174.11 1868.5 1154.14 1862.1 1137.51C1855.17 1119.48 1855.11 1100.07 1849.07 1081.95C1835.3 1040.63 1823.3 995.335 1814.87 952.72C1801.35 884.418 1789.64 815.966 1762.56 751.636C1746.93 714.523 1729.71 678.858 1712.42 642.497C1697.06 610.187 1684.27 578.892 1662.47 550.19C1647.2 530.092 1634.2 509.791 1614.69 493.358C1589.32 471.997 1559.98 455.417 1533.96 434.716C1505.82 412.321 1477.49 390.284 1448.9 368.472C1397.3 329.119 1346.76 309.169 1285.28 291.912C1216.76 272.678 1141.52 249.454 1079.31 213.904C1050.26 197.307 1023.49 179.006 989.353 174.99C967.957 172.473 900.977 141.008 899.399 182.049C898.168 214.061 892.354 243.349 895.96 275.804C897.25 287.409 897.365 315.619 905.915 324.672C941.223 362.057 995.78 354.46 1040.76 373.54C1081.87 390.981 1109.24 433.683 1141.21 462.227C1182.7 499.271 1241.35 509.686 1290.35 533.177C1318.76 546.799 1350.33 551.387 1378.31 565.756C1392.51 573.05 1405.39 589.939 1415.96 601.592C1431.81 619.085 1451.7 630.363 1464.64 650.28C1471.21 660.385 1477.29 670.376 1482.56 681.23C1496.65 710.228 1507.18 744.433 1513.51 776.07C1519.79 807.47 1524.76 838.853 1516.59 870.368C1505.43 913.421 1485.56 944.67 1453.96 976.973C1423.93 1007.67 1372.97 1030.96 1332.88 1046.29C1294.48 1060.98 1257.67 1076.39 1216.14 1079.78C1179.27 1082.79 1141.94 1079.28 1105.37 1074.71C1084.64 1072.12 1063.51 1075.63 1042.75 1073.26C1005.88 1069.05 977.513 1057.96 945.19 1039.78C922.465 1027 906.489 1016.68 905.915 988.557C905.146 950.865 915.055 911 907.544 873.445C899.139 831.422 906.736 787.501 896.141 745.12C891.467 726.426 882.604 726.617 869.354 711.711C861.498 702.872 849.103 688.033 844.739 677.322C840.94 667.999 830.301 665.737 825.192 657.051C814.879 639.52 773.629 638.819 757.862 629.359C744.002 621.043 726.107 624.472 710.441 624.472C687.239 624.472 658.434 629.11 635.872 622.843C614.934 617.027 594.111 618.617 573.61 608.906C551.051 598.22 524.27 594.824 503.566 580.49C479.854 564.074 466.017 572.366 440.037 578.861C414.748 585.183 388.765 586.579 365.105 598.409C351.69 605.116 339.962 614.871 326.011 620.49C313.693 625.451 301.522 629.14 290.898 637.503C239.125 678.261 208.096 694.485 186.103 756.342C176.758 782.623 173.044 810.206 168.003 837.427C165.232 852.389 156.86 865.154 154.067 879.961C149.629 903.479 150.085 925.301 150.085 949.462C150.085 966.18 148.928 986.669 155.153 1002.67C169.122 1038.59 192.888 1058.15 219.767 1085.03C239.05 1104.31 261.536 1119.64 282.753 1136.61C303.076 1152.87 335.122 1174.46 343.024 1201.04C352.534 1233.03 350.699 1273.21 340.49 1305.3Z" fill="#CAB788"/>
<path d="M1165.75 215.416C1126.77 196.267 1091.08 196.186 1050.77 184.242C1025.24 167.227 1007.32 157.43 978.199 148.47C960.239 142.943 934.131 147.475 917.64 154.347C894.21 164.109 901.011 170.984 888.767 187.82C872.596 210.054 875.546 273.568 894.388 294.627C915.979 318.758 940.084 324.646 967.978 337.043C1004.9 353.454 1070.09 320.291 1101.36 349.819C1169.65 414.313 1277.66 435.728 1363.52 468.38C1417.11 488.76 1489.06 528.996 1515.3 584.387C1530.31 616.069 1529.1 658.398 1529.1 692.727C1529.1 731.558 1526.7 773.647 1522.2 812.31C1516.51 861.291 1526.61 911.52 1506.1 957.957C1482.28 1011.92 1429.67 1034.92 1381.92 1064.76C1339.69 1091.16 1292.78 1111.96 1249.56 1137.33C1201.58 1165.5 1154.33 1167.46 1099.32 1161.61C1045.18 1155.85 997.801 1142.4 946.003 1127.11C915.232 1118.03 876.022 1108.53 850.95 1088.02C834.188 1074.3 811.6 1034.01 811.6 1012.13C811.6 977.184 829.024 955.499 839.196 922.439C848.169 893.276 852.014 859.406 848.139 828.408C843.09 788.014 834.345 747.75 822.843 708.314C812.821 673.955 797.999 648.612 763.562 636.001C722.076 620.809 672.312 615.448 628.647 608.405C591.742 602.453 559.049 595.747 524.14 582.087C503.31 573.936 463.18 562.248 442.629 575.188C364.1 624.632 285.543 703.639 264.276 796.979C248.698 865.352 227.17 967.197 290.85 1016.73C323.555 1042.16 366.416 1065.56 388.203 1102.33C407.192 1134.37 420.31 1171.64 428.831 1207.85C433.033 1225.71 429.693 1248.11 422.954 1264.58C410.929 1293.97 405.056 1311.61 410.434 1343.28C415.824 1375.02 416.055 1405.41 416.055 1437.57C416.055 1477.8 437.437 1524.2 463.071 1554.85C483.985 1579.86 515.837 1593.67 543.815 1609.02C564.65 1620.46 584.118 1635.82 605.14 1646.33C651.501 1669.51 714.888 1673.55 765.606 1678.01C807.223 1681.67 849.147 1677 890.811 1681.08C936.21 1685.52 983.272 1694.31 1027.26 1706.63C1074.54 1719.87 1118.08 1720.43 1166.77 1720.43C1198.82 1720.43 1232.65 1723.6 1264.38 1718.13C1279.58 1715.51 1296.08 1714.24 1311.4 1716.85C1398.14 1731.62 1472.27 1703.77 1542.39 1651.18C1585.57 1618.79 1620.65 1579.73 1655.33 1538.75C1677.98 1511.99 1691.44 1479.38 1712.05 1451.11C1749.99 1399.07 1804.15 1352.22 1835.21 1296.52C1859.63 1252.73 1883.85 1212.14 1889.64 1161.35C1894.81 1115.95 1893.86 1068.63 1887.85 1023.37C1876.71 939.523 1866.51 855.922 1849.01 773.216C1831.1 688.527 1777.55 619.668 1768.01 533.794C1764.81 505.004 1740.29 485.891 1726.87 462.248C1718.49 447.482 1700.68 427.197 1687.27 416.765C1666.21 400.386 1622.99 393.185 1598.09 386.614C1558.75 376.232 1517.6 366.031 1490.26 333.722C1462.86 301.335 1426.69 302.73 1386.52 298.204C1344.78 293.502 1307.13 287.575 1269.24 269.331C1234.22 252.47 1200.7 232.582 1165.75 215.416Z" fill="url(#paint0_linear_1637_35217)"/>
<rect x="955.221" y="1057.02" width="57.8755" height="16.9103" transform="rotate(-143 955.221 1057.02)" fill="url(#paint1_linear_1637_35217)"/>
<rect width="57.9284" height="17.0679" transform="matrix(-0.78244 -0.622727 0.610972 -0.791653 967.539 1041)" fill="url(#paint2_linear_1637_35217)"/>
<rect x="980.664" y="1023.26" width="57.8755" height="16.9103" transform="rotate(-143 980.664 1023.26)" fill="url(#paint3_linear_1637_35217)"/>
<rect width="58.0198" height="17.0562" transform="matrix(-0.843783 -0.536685 0.573858 -0.818955 994.916 1005.26)" fill="url(#paint4_linear_1637_35217)"/>
<rect x="1004.83" y="991.18" width="57.8755" height="17.9672" transform="rotate(-143 1004.83 991.18)" fill="url(#paint5_linear_1637_35217)"/>
<rect x="1019.22" y="974.018" width="57.8755" height="16.9103" transform="rotate(-143 1019.22 974.018)" fill="url(#paint6_linear_1637_35217)"/>
<rect width="57.9284" height="17.0679" transform="matrix(-0.78244 -0.622727 0.610972 -0.791653 1031.54 957.997)" fill="url(#paint7_linear_1637_35217)"/>
<rect x="1044.66" y="940.255" width="57.8755" height="16.9103" transform="rotate(-143 1044.66 940.255)" fill="url(#paint8_linear_1637_35217)"/>
<rect width="58.0198" height="17.0562" transform="matrix(-0.843783 -0.536685 0.573858 -0.818955 1058.92 922.261)" fill="url(#paint9_linear_1637_35217)"/>
<rect x="1068.83" y="908.18" width="57.8755" height="17.9672" transform="rotate(-143 1068.83 908.18)" fill="url(#paint10_linear_1637_35217)"/>
<rect x="1353.22" y="664.018" width="57.8755" height="16.9103" transform="rotate(-143 1353.22 664.018)" fill="url(#paint11_linear_1637_35217)"/>
<rect width="57.9284" height="17.0679" transform="matrix(-0.78244 -0.622727 0.610972 -0.791653 1365.54 647.997)" fill="url(#paint12_linear_1637_35217)"/>
<rect x="1378.66" y="630.255" width="57.8755" height="16.9103" transform="rotate(-143 1378.66 630.255)" fill="url(#paint13_linear_1637_35217)"/>
<rect width="58.0198" height="17.0562" transform="matrix(-0.843783 -0.536685 0.573858 -0.818955 1392.92 612.261)" fill="url(#paint14_linear_1637_35217)"/>
<rect x="1402.83" y="598.18" width="57.8755" height="17.9672" transform="rotate(-143 1402.83 598.18)" fill="url(#paint15_linear_1637_35217)"/>
<path d="M788.468 1282.86C742.033 1272.22 716.402 1209.28 695.97 1169.55C687.336 1149.96 618.345 1150.81 597.113 1177.35C563.769 1219.03 591.906 1304.14 620.816 1343.56C673.645 1415.6 754.477 1458.94 836.74 1491.85C909.722 1521.04 979.859 1503.1 1051.71 1484.72L1052.09 1484.62C1110.01 1469.8 1179.42 1432.61 1239.39 1458.31C1335.21 1499.38 1464.33 1425.72 1433.64 1315.23C1426.84 1290.77 1397.37 1250.31 1370.63 1253.95C1328.01 1259.76 1282.78 1277.98 1241.13 1289.22C1178.12 1306.22 1113.37 1321.33 1048.62 1329.69C1005.17 1335.29 948.443 1334.87 910.449 1310.03C874.262 1286.37 830.232 1292.43 788.468 1282.86Z" fill="url(#paint16_linear_1637_35217)" fill-opacity="0.2"/>
</g>
<defs>
<filter id="filter0_d_1637_35217" x="0" y="0" width="2043" height="2146.52" filterUnits="userSpaceOnUse" color-interpolation-filters="sRGB">
<feFlood flood-opacity="0" result="BackgroundImageFix"/>
<feColorMatrix in="SourceAlpha" type="matrix" values="0 0 0 0 0 0 0 0 0 0 0 0 0 0 0 0 0 0 127 0" result="hardAlpha"/>
<feOffset dy="4"/>
<feGaussianBlur stdDeviation="75"/>
<feComposite in2="hardAlpha" operator="out"/>
<feColorMatrix type="matrix" values="0 0 0 0 0.458501 0 0 0 0 0.782227 0 0 0 0 0.513474 0 0 0 1 0"/>
<feBlend mode="normal" in2="BackgroundImageFix" result="effect1_dropShadow_1637_35217"/>
<feBlend mode="normal" in="SourceGraphic" in2="effect1_dropShadow_1637_35217" result="shape"/>
</filter>
<linearGradient id="paint0_linear_1637_35217" x1="1070.41" y1="146" x2="1070.41" y2="1721.34" gradientUnits="userSpaceOnUse">
<stop stop-color="#98BB53"/>
<stop offset="1" stop-color="#387447"/>
</linearGradient>
<linearGradient id="paint1_linear_1637_35217" x1="955.221" y1="1065.47" x2="1013.1" y2="1065.47" gradientUnits="userSpaceOnUse">
<stop stop-color="#582206"/>
<stop offset="1" stop-color="#710B19"/>
</linearGradient>
<linearGradient id="paint2_linear_1637_35217" x1="0" y1="8.53396" x2="57.9284" y2="8.53396" gradientUnits="userSpaceOnUse">
<stop stop-color="#582206"/>
<stop offset="1" stop-color="#710B19"/>
</linearGradient>
<linearGradient id="paint3_linear_1637_35217" x1="980.664" y1="1031.71" x2="1038.54" y2="1031.71" gradientUnits="userSpaceOnUse">
<stop stop-color="#582206"/>
<stop offset="1" stop-color="#710B19"/>
</linearGradient>
<linearGradient id="paint4_linear_1637_35217" x1="0" y1="8.52809" x2="58.0198" y2="8.52809" gradientUnits="userSpaceOnUse">
<stop stop-color="#582206"/>
<stop offset="1" stop-color="#710B19"/>
</linearGradient>
<linearGradient id="paint5_linear_1637_35217" x1="1004.83" y1="1000.16" x2="1062.71" y2="1000.16" gradientUnits="userSpaceOnUse">
<stop stop-color="#582206"/>
<stop offset="1" stop-color="#710B19"/>
</linearGradient>
<linearGradient id="paint6_linear_1637_35217" x1="1019.22" y1="982.473" x2="1077.1" y2="982.473" gradientUnits="userSpaceOnUse">
<stop stop-color="#582206"/>
<stop offset="1" stop-color="#710B19"/>
</linearGradient>
<linearGradient id="paint7_linear_1637_35217" x1="0" y1="8.53396" x2="57.9284" y2="8.53396" gradientUnits="userSpaceOnUse">
<stop stop-color="#582206"/>
<stop offset="1" stop-color="#710B19"/>
</linearGradient>
<linearGradient id="paint8_linear_1637_35217" x1="1044.66" y1="948.71" x2="1102.54" y2="948.71" gradientUnits="userSpaceOnUse">
<stop stop-color="#582206"/>
<stop offset="1" stop-color="#710B19"/>
</linearGradient>
<linearGradient id="paint9_linear_1637_35217" x1="0" y1="8.52809" x2="58.0198" y2="8.52809" gradientUnits="userSpaceOnUse">
<stop stop-color="#582206"/>
<stop offset="1" stop-color="#710B19"/>
</linearGradient>
<linearGradient id="paint10_linear_1637_35217" x1="1068.83" y1="917.164" x2="1126.71" y2="917.164" gradientUnits="userSpaceOnUse">
<stop stop-color="#582206"/>
<stop offset="1" stop-color="#710B19"/>
</linearGradient>
<linearGradient id="paint11_linear_1637_35217" x1="1353.22" y1="672.473" x2="1411.1" y2="672.473" gradientUnits="userSpaceOnUse">
<stop stop-color="#582206"/>
<stop offset="1" stop-color="#710B19"/>
</linearGradient>
<linearGradient id="paint12_linear_1637_35217" x1="0" y1="8.53396" x2="57.9284" y2="8.53396" gradientUnits="userSpaceOnUse">
<stop stop-color="#582206"/>
<stop offset="1" stop-color="#710B19"/>
</linearGradient>
<linearGradient id="paint13_linear_1637_35217" x1="1378.66" y1="638.71" x2="1436.54" y2="638.71" gradientUnits="userSpaceOnUse">
<stop stop-color="#582206"/>
<stop offset="1" stop-color="#710B19"/>
</linearGradient>
<linearGradient id="paint14_linear_1637_35217" x1="0" y1="8.52809" x2="58.0198" y2="8.52809" gradientUnits="userSpaceOnUse">
<stop stop-color="#582206"/>
<stop offset="1" stop-color="#710B19"/>
</linearGradient>
<linearGradient id="paint15_linear_1637_35217" x1="1402.83" y1="607.164" x2="1460.71" y2="607.164" gradientUnits="userSpaceOnUse">
<stop stop-color="#582206"/>
<stop offset="1" stop-color="#710B19"/>
</linearGradient>
<linearGradient id="paint16_linear_1637_35217" x1="1199.84" y1="1388.46" x2="733.836" y2="1264.96" gradientUnits="userSpaceOnUse">
<stop stop-color="#D1CB53"/>
<stop offset="1" stop-color="#D8BC7D"/>
</linearGradient>
</defs>
</svg>
